<svg xmlns="http://www.w3.org/2000/svg" style="display: none;">
	<symbol id="graph" viewBox="0 0 60 60">
		<title>graph</title>
		<path d="M59,55.5v-39H47v39h-3v-31H32v31h-3v-23H17v23h-3v-14H2v14H1c-0.552,0-1,0.447-1,1s0.448,1,1,1h1h12h3h12h3h12h3h12 c0.552,0,1-0.447,1-1S59.552,55.5,59,55.5z M4,55.5v-12h8v12H4z M19,55.5v-21h8v21H19z M34,55.5v-29h8v29H34z M49,55.5v-37h8v37H49 z" />
		<path d="M8.03,27.83c0.169,0,0.342-0.043,0.499-0.134l36.269-20.94l-2.27,4.99c-0.229,0.503-0.007,1.096,0.496,1.324 c0.134,0.062,0.275,0.09,0.414,0.09c0.38,0,0.743-0.218,0.911-0.586l3.562-7.83c0.011-0.025,0.009-0.052,0.018-0.078 c0.019-0.053,0.034-0.104,0.044-0.16c0.005-0.028,0.021-0.051,0.023-0.08c0.001-0.012-0.004-0.022-0.003-0.034 c0.002-0.038-0.002-0.073-0.004-0.111c-0.003-0.055-0.012-0.107-0.024-0.162c-0.008-0.038-0.01-0.077-0.023-0.114 c-0.012-0.036-0.033-0.066-0.049-0.101C47.88,3.881,47.88,3.854,47.866,3.83c-0.014-0.024-0.038-0.038-0.054-0.061 c-0.021-0.031-0.037-0.064-0.062-0.092c-0.026-0.03-0.059-0.051-0.089-0.078c-0.041-0.037-0.082-0.071-0.128-0.101 c-0.031-0.02-0.059-0.042-0.093-0.059c-0.011-0.005-0.017-0.015-0.028-0.02c-0.025-0.011-0.052-0.009-0.077-0.018 c-0.055-0.02-0.109-0.034-0.166-0.044c-0.026-0.005-0.047-0.02-0.074-0.022l-8.562-0.83c-0.555-0.056-1.039,0.35-1.092,0.898 c-0.054,0.55,0.349,1.039,0.898,1.092l5.456,0.529L7.529,25.964C7.05,26.24,6.887,26.852,7.163,27.33 C7.348,27.651,7.684,27.83,8.03,27.83z" />
	</symbol>
	<symbol id="pie-chart" viewBox="0 0 60.07 60.07">
		<title>pie-chart</title>
		<path d="M59.921,27.964C58.908,13.099,46.934,1.124,32.068,0.11L31,0.038v28.994h28.994L59.921,27.964z M33,27.032V2.199 c2.475,0.265,4.854,0.859,7.097,1.732c-0.004,0.035-0.02,0.065-0.02,0.101c0,0.552,0.448,1,1,1c0.301,0,0.562-0.14,0.746-0.35 c4.937,2.317,9.089,6.035,11.952,10.637c-0.18-0.177-0.426-0.287-0.698-0.287c-0.552,0-1,0.448-1,1s0.448,1,1,1s1-0.448,1-1 c0-0.129-0.029-0.25-0.073-0.363c0.512,0.85,0.969,1.735,1.39,2.64c-0.193,0.182-0.317,0.437-0.317,0.723c0,0.552,0.448,1,1,1 c0.021,0,0.039-0.011,0.061-0.012c0.855,2.218,1.434,4.569,1.696,7.012H33z" />
		<path d="M31.318,31.032l20.097,20.097l0.706-0.766c4.618-5.008,7.415-11.494,7.876-18.263l0.073-1.068H31.318z M51.343,48.229 L36.146,33.032h21.762C57.308,38.616,55.007,43.942,51.343,48.229z" />
		<circle cx="35.076" cy="4.032" r="1" />
		<circle cx="35.076" cy="10.032" r="1" />
		<circle cx="38.076" cy="7.032" r="1" />
		<circle cx="44.076" cy="7.032" r="1" />
		<circle cx="41.076" cy="10.032" r="1" />
		<circle cx="47.076" cy="10.032" r="1" />
		<circle cx="50.076" cy="13.032" r="1" />
		<circle cx="38.076" cy="13.032" r="1" />
		<circle cx="44.076" cy="13.032" r="1" />
		<circle cx="50.076" cy="19.032" r="1" />
		<circle cx="53.076" cy="22.032" r="1" />
		<circle cx="35.076" cy="16.032" r="1" />
		<circle cx="35.076" cy="22.032" r="1" />
		<circle cx="38.076" cy="19.032" r="1" />
		<circle cx="44.076" cy="19.032" r="1" />
		<circle cx="41.076" cy="16.032" r="1" />
		<circle cx="47.076" cy="16.032" r="1" />
		<circle cx="41.076" cy="22.032" r="1" />
		<circle cx="47.076" cy="22.032" r="1" />
		<circle cx="56.076" cy="25.032" r="1" />
		<circle cx="50.076" cy="25.032" r="1" />
		<circle cx="38.076" cy="25.032" r="1" />
		<circle cx="44.076" cy="25.032" r="1" />
		<path d="M29,0.038L27.932,0.11C12.269,1.179,0,14.321,0,30.032c0,7.239,2.621,14.233,7.38,19.695l0.704,0.808L29,29.618V0.038z M27,28.79L8.199,47.591C4.194,42.623,2,36.43,2,30.032C2,15.729,12.896,3.705,27,2.199V28.79z" />
		<path d="M9.498,51.948l0.808,0.704c5.461,4.759,12.456,7.38,19.694,7.38c6.927,0,13.687-2.425,19.037-6.826l0.851-0.7 L29.414,32.032L9.498,51.948z M29.414,34.86l1.101,1.101L13.707,52.768c-0.426-0.306-0.856-0.604-1.266-0.934L29.414,34.86z M21.198,56.592c-0.695-0.231-1.379-0.491-2.053-0.776l15.613-15.613l1.414,1.414L21.198,56.592z M37.586,43.032L39,44.446 L25.756,57.691c-0.795-0.122-1.583-0.277-2.362-0.467L37.586,43.032z M17.219,54.914c-0.616-0.316-1.218-0.657-1.81-1.019 l16.52-16.52l1.415,1.415L17.219,54.914z M28.315,57.96l12.099-12.1l1.414,1.414L31.117,57.986 c-0.372,0.015-0.743,0.046-1.117,0.046C29.436,58.032,28.876,57.994,28.315,57.96z M43.242,48.689l1.415,1.415l-6.763,6.763 c-1.2,0.354-2.419,0.639-3.659,0.83L43.242,48.689z M42.56,55.029l3.512-3.512l0.828,0.828 C45.536,53.38,44.077,54.266,42.56,55.029z" />
	</symbol>
	<symbol id="chart" viewBox="0 0 60 60">
		<title>chart</title>
		<path d="M60,8V0H0v8h2v40H1c-0.553,0-1,0.447-1,1s0.447,1,1,1h1h27v2c0,0.047,0.021,0.088,0.027,0.134 C27.292,52.571,26,54.131,26,56c0,2.206,1.794,4,4,4s4-1.794,4-4c0-1.869-1.292-3.429-3.027-3.866C30.979,52.088,31,52.047,31,52 v-2h27h1c0.553,0,1-0.447,1-1s-0.447-1-1-1h-1V8H60z M32,56c0,1.103-0.897,2-2,2s-2-0.897-2-2s0.897-2,2-2S32,54.897,32,56z M2,2 h56v4H2V2z M56,48H4V8h52V48z" />
		<path d="M25,40v-2V27h-8v11v2v5h8V40z M19,29h4v9h-4V29z M23,43h-4v-3h4V43z" />
		<path d="M34,40v-2V21h-8v17v2v5h8V40z M28,23h4v15h-4V23z M32,43h-4v-3h4V43z" />
		<path d="M43,40v-2V28h-8v10v2v5h8V40z M37,30h4v8h-4V30z M41,43h-4v-3h4V43z" />
		<path d="M52,40v-2V15h-8v23v2v5h8V40z M46,17h4v21h-4V17z M50,43h-4v-3h4V43z" />
		<path d="M8,38v2v5h8v-5v-2v-5H8V38z M14,43h-4v-3h4V43z M10,35h4v3h-4V35z" />
		<path d="M8,25c0.256,0,0.512-0.098,0.707-0.293L14,19.414V22c0,0.553,0.447,1,1,1s1-0.447,1-1v-5c0-0.13-0.026-0.26-0.077-0.382 c-0.101-0.245-0.296-0.44-0.541-0.541C15.26,16.026,15.13,16,15,16h-5c-0.553,0-1,0.447-1,1s0.447,1,1,1h2.586l-5.293,5.293 c-0.391,0.391-0.391,1.023,0,1.414C7.488,24.902,7.744,25,8,25z" />
	</symbol>
	<symbol id="computer" viewBox="0 0 512.001 512.001">
		<title>computer</title>
		<g>
			<g>
				<path d="M470.878,38.491H41.122C18.447,38.491,0,56.938,0,79.613v282.102c0,22.675,18.447,41.122,41.122,41.122h134.782v40.437 h-35.138c-8.349,0-15.118,6.769-15.118,15.118s6.769,15.118,15.118,15.118h50.256h129.962h50.257 c8.349,0,15.118-6.769,15.118-15.118s-6.769-15.118-15.118-15.118h-35.139v-40.437h134.776c22.675,0,41.122-18.447,41.122-41.122 V79.613C512,56.938,493.553,38.491,470.878,38.491z M305.867,443.275H206.14v-40.437h99.726V443.275z M481.764,361.716 c0,6.002-4.883,10.886-10.886,10.886H320.985H191.021H41.122c-6.003,0-10.886-4.884-10.886-10.886v-31.255h451.528V361.716z M481.764,300.225H30.236V79.613c0-6.002,4.883-10.886,10.886-10.886h429.755c6.003,0,10.886,4.884,10.886,10.886V300.225z" />
			</g>
		</g>
		<g>
			<g>
				<path d="M256,169.358c-6.65,0-12.059-5.409-12.059-12.059c0-6.65,5.409-12.059,12.059-12.059h27.177 c8.349,0,15.118-6.769,15.118-15.118c0-8.349-6.769-15.118-15.118-15.118h-12.059v-8.267c0-8.349-6.769-15.118-15.118-15.118 s-15.118,6.769-15.118,15.118v11.07c-15.875,6.099-27.177,21.495-27.177,39.492c0,23.322,18.973,42.295,42.295,42.295 c6.65,0,12.059,5.41,12.059,12.06S262.65,223.714,256,223.714h-27.177c-8.349,0-15.118,6.769-15.118,15.118 s6.769,15.118,15.118,15.118h12.059v8.267c0,8.349,6.769,15.118,15.118,15.118s15.118-6.769,15.118-15.118v-11.071 c15.875-6.099,27.177-21.495,27.177-39.492C298.295,188.332,279.322,169.358,256,169.358z" />
			</g>
		</g>
	</symbol>
	<symbol id="diagram" viewBox="0 0 512 512">
		<title>diagram</title>
		<g>
			<path style="fill:#29485A;" d="M42.667,51.182H153.6v17.067H42.667V51.182z" />
			<path style="fill:#29485A;" d="M42.667,85.316H153.6v17.067H42.667V85.316z" />
			<path style="fill:#29485A;" d="M42.667,119.449h76.8v17.067h-76.8V119.449z" />
			<path style="fill:#29485A;" d="M42.667,153.582h76.8v17.067h-76.8V153.582z" />
			<path style="fill:#29485A;" d="M0,494.916h512v17.067H0V494.916z" />
		</g>
		<g>
			<path style="fill:#ED1C24;" d="M34.859,383.982l-1.451-17.067c178.321-15.454,331.059-133.931,390.357-302.814L444.245,5.7 l16.111,5.632l-20.48,58.402C378.377,244.983,219.895,367.948,34.859,383.982z" />
			<path style="fill:#ED1C24;" d="M42.667,418.116H102.4v51.2H42.667V418.116z" />
		</g>
		<path style="fill:#FBB03B;" d="M136.533,392.516h59.733v76.8h-59.733V392.516z" />
		<path style="fill:#F8CF26;" d="M230.4,349.849h59.733v119.467H230.4V349.849z" />
		<path style="fill:#39B54A;" d="M324.267,290.116H384v179.2h-59.733V290.116z" />
		<path style="fill:#0071BC;" d="M418.133,170.649h59.733v298.667h-59.733V170.649z" />
		<path style="fill:#ED1C24;" d="M486.4,85.316c-3.251,0.017-6.229-1.809-7.68-4.719L448.41,20.01l-60.595,30.319 c-4.215,2.108-9.344,0.393-11.452-3.823c-2.108-4.215-0.393-9.344,3.823-11.452l68.267-34.133c4.215-2.108,9.344-0.401,11.452,3.814 v0.009l34.133,68.267c2.082,4.224,0.341,9.344-3.883,11.426C488.986,85.008,487.706,85.316,486.4,85.316z" />
	</symbol>
	<symbol id="data" viewBox="0 0 512 512">
		<title>data</title>
		<path d="m184.175781 417.710938h143.058594v59.210937h-143.058594zm0 0" fill="#5a5a5a" />
		<path d="m485.15625 426.003906h-458.902344c-14.5 0-26.253906-11.753906-26.253906-26.253906v-373.496094c0-14.5 11.753906-26.253906 26.253906-26.253906h458.902344c14.5 0 26.253906 11.753906 26.253906 26.253906v373.496094c0 14.5-11.753906 26.253906-26.253906 26.253906zm0 0" fill="#ffd86e" />
		<path d="m511.414062 26.257812v373.492188c0 14.5-11.753906 26.253906-26.253906 26.253906h-32.070312c14.5 0 26.253906-11.753906 26.253906-26.253906v-373.492188c0-14.5-11.753906-26.25390575-26.253906-26.25390575h32.070312c14.5 0 26.253906 11.75390575 26.253906 26.25390575zm0 0" fill="#ffb509" />
		<path d="m511.410156 362.753906h-511.410156v36.996094c0 14.5 11.753906 26.253906 26.253906 26.253906h458.902344c14.5 0 26.253906-11.753906 26.253906-26.253906zm0 0" fill="#838383" />
		<path d="m511.414062 362.75v37c0 14.5-11.753906 26.253906-26.253906 26.253906h-32.070312c14.5 0 26.253906-11.753906 26.253906-26.253906v-37zm0 0" fill="#5a5a5a" />
		<path d="m511.996094 89.5625h-511.425782v-63.308594c0-14.5 11.753907-26.253906 26.25-26.253906h458.921876c14.5 0 26.253906 11.753906 26.253906 26.253906zm0 0" fill="#acacac" />
		<path d="m512 26.25v63.316406h-32.65625v-63.316406c0-14.492188-11.753906-26.24609375-26.257812-26.24609375h32.660156c14.5 0 26.253906 11.75390575 26.253906 26.24609375zm0 0" fill="#9c9c9c" />
		<path d="m373.59375 511.425781h-235.777344c-2.839844 0-5.144531-2.304687-5.144531-5.144531v-16.675781c0-11.308594 9.167969-20.476563 20.476563-20.476563h205.113281c11.308593 0 20.476562 9.167969 20.476562 20.476563v16.675781c0 2.839844-2.304687 5.144531-5.144531 5.144531zm0 0" fill="#838383" />
		<path d="m378.738281 489.601562v16.683594c0 2.839844-2.304687 5.144532-5.148437 5.144532h-18.164063v-21.828126c0-11.300781-9.167969-20.472656-20.46875-20.472656h23.3125c11.304688 0 20.46875 9.167969 20.46875 20.472656zm0 0" fill="#5a5a5a" />
		<g fill="#838383">
			<path d="m58.476562 186.492188c-1.917968 0-3.839843-.730469-5.304687-2.195313l-24.199219-24.203125c-2.929687-2.925781-2.929687-7.675781 0-10.605469l24.199219-24.199219c2.929687-2.929687 7.679687-2.929687 10.609375 0 2.929688 2.929688 2.929688 7.675782 0 10.605469l-18.898438 18.898438 18.898438 18.898437c2.929688 2.929688 2.929688 7.675782 0 10.605469-1.464844 1.464844-3.386719 2.195313-5.304688 2.195313zm0 0" />
			<path d="m116.335938 186.492188c-1.917969 0-3.839844-.730469-5.304688-2.195313-2.929688-2.929687-2.929688-7.679687 0-10.605469l18.898438-18.898437-18.898438-18.898438c-2.929688-2.929687-2.929688-7.679687 0-10.605469 2.929688-2.929687 7.679688-2.929687 10.609375 0l24.199219 24.199219c2.929687 2.929688 2.929687 7.679688 0 10.605469l-24.199219 24.203125c-1.464844 1.464844-3.386719 2.195313-5.304687 2.195313zm0 0" />
			<path d="m78.722656 186.496094c-.914062 0-1.839844-.167969-2.742187-.523438-3.855469-1.511718-5.753907-5.867187-4.238281-9.722656l19.015624-48.402344c1.515626-3.851562 5.871094-5.753906 9.722657-4.238281 3.855469 1.515625 5.753906 5.871094 4.238281 9.726563l-19.015625 48.398437c-1.160156 2.957031-3.988281 4.761719-6.980469 4.761719zm0 0" />
			<path d="m90.644531 231.78125h-52c-4.140625 0-7.5-3.359375-7.5-7.5 0-4.144531 3.359375-7.5 7.5-7.5h52c4.144531 0 7.5 3.355469 7.5 7.5 0 4.140625-3.355469 7.5-7.5 7.5zm0 0" />
			<path d="m210.417969 231.78125h-91.425781c-4.140626 0-7.5-3.359375-7.5-7.5 0-4.144531 3.359374-7.5 7.5-7.5h91.425781c4.144531 0 7.5 3.355469 7.5 7.5 0 4.140625-3.355469 7.5-7.5 7.5zm0 0" />
			<path d="m60.796875 264.335938h-22.152344c-4.140625 0-7.5-3.355469-7.5-7.5 0-4.140626 3.359375-7.5 7.5-7.5h22.152344c4.144531 0 7.5 3.359374 7.5 7.5 0 4.144531-3.359375 7.5-7.5 7.5zm0 0" />
			<path d="m195.667969 264.335938h-13.492188c-4.140625 0-7.5-3.355469-7.5-7.5 0-4.140626 3.359375-7.5 7.5-7.5h13.492188c4.140625 0 7.5 3.359374 7.5 7.5 0 4.144531-3.359375 7.5-7.5 7.5zm0 0" />
			<path d="m154.140625 264.335938h-66.257813c-4.144531 0-7.5-3.355469-7.5-7.5 0-4.140626 3.355469-7.5 7.5-7.5h66.257813c4.144531 0 7.5 3.359374 7.5 7.5 0 4.144531-3.359375 7.5-7.5 7.5zm0 0" />
			<path d="m245.414062 264.335938h-25.269531c-4.140625 0-7.5-3.355469-7.5-7.5 0-4.140626 3.359375-7.5 7.5-7.5h25.269531c4.140626 0 7.5 3.359374 7.5 7.5 0 4.144531-3.359374 7.5-7.5 7.5zm0 0" />
			<path d="m197.039062 160.761719h-26.652343c-4.144531 0-7.5-3.355469-7.5-7.5 0-4.140625 3.355469-7.5 7.5-7.5h26.652343c4.144532 0 7.5 3.359375 7.5 7.5 0 4.144531-3.355468 7.5-7.5 7.5zm0 0" />
			<path d="m389.503906 160.761719h-162.617187c-4.140625 0-7.5-3.355469-7.5-7.5 0-4.140625 3.359375-7.5 7.5-7.5h162.617187c4.140625 0 7.5 3.359375 7.5 7.5 0 4.144531-3.359375 7.5-7.5 7.5zm0 0" />
			<path d="m364.800781 194.726562h-65.867187c-4.144532 0-7.5-3.355468-7.5-7.5 0-4.140624 3.355468-7.5 7.5-7.5h65.867187c4.144531 0 7.5 3.359376 7.5 7.5 0 4.144532-3.355469 7.5-7.5 7.5zm0 0" />
			<path d="m274.230469 194.726562h-22.644531c-4.140626 0-7.5-3.355468-7.5-7.5 0-4.140624 3.359374-7.5 7.5-7.5h22.644531c4.144531 0 7.5 3.359376 7.5 7.5 0 4.144532-3.355469 7.5-7.5 7.5zm0 0" />
			<path d="m225.859375 194.726562h-55.476563c-4.140624 0-7.5-3.355468-7.5-7.5 0-4.140624 3.359376-7.5 7.5-7.5h55.476563c4.140625 0 7.5 3.359376 7.5 7.5 0 4.144532-3.359375 7.5-7.5 7.5zm0 0" />
			<path d="m154.238281 296.621094h-52c-4.144531 0-7.5-3.359375-7.5-7.5 0-4.144532 3.355469-7.5 7.5-7.5h52c4.144531 0 7.5 3.355468 7.5 7.5 0 4.140625-3.355469 7.5-7.5 7.5zm0 0" />
			<path d="m78.597656 296.621094h-39.953125c-4.140625 0-7.5-3.359375-7.5-7.5 0-4.144532 3.359375-7.5 7.5-7.5h39.953125c4.140625 0 7.5 3.355468 7.5 7.5 0 4.140625-3.359375 7.5-7.5 7.5zm0 0" />
			<path d="m248.5 296.621094h-67.925781c-4.144531 0-7.5-3.359375-7.5-7.5 0-4.144532 3.355469-7.5 7.5-7.5h67.925781c4.144531 0 7.5 3.355468 7.5 7.5 0 4.140625-3.355469 7.5-7.5 7.5zm0 0" />
		</g>
		<path d="m296.664062 263.390625h167.152344v56.605469h-167.152344zm0 0" fill="#64dcfc" />
		<path d="m296.664062 350.871094h167.152344v52.492187h-167.152344zm0 0" fill="#64dcfc" />
		<path d="m444.050781 263.390625h19.765625v56.605469h-19.765625zm0 0" fill="#00d1fc" />
		<path d="m444.050781 350.871094h19.765625v52.492187h-19.765625zm0 0" fill="#00d1fc" />
		<path d="m477.65625 275.6875h-194.832031c-4.121094 0-7.460938-3.339844-7.460938-7.460938v-37.515624c0-4.121094 3.339844-7.460938 7.460938-7.460938h194.832031c4.121094 0 7.460938 3.339844 7.460938 7.460938v37.515624c0 4.121094-3.339844 7.460938-7.460938 7.460938zm0 0" fill="#0396fd" />
		<path d="m477.65625 359.808594h-194.832031c-4.121094 0-7.460938-3.339844-7.460938-7.460938v-37.515625c0-4.121093 3.339844-7.460937 7.460938-7.460937h194.832031c4.121094 0 7.460938 3.339844 7.460938 7.460937v37.515625c0 4.121094-3.339844 7.460938-7.460938 7.460938zm0 0" fill="#0396fd" />
		<path d="m477.65625 443.929688h-194.832031c-4.121094 0-7.460938-3.339844-7.460938-7.460938v-37.515625c0-4.121094 3.339844-7.460937 7.460938-7.460937h194.832031c4.121094 0 7.460938 3.339843 7.460938 7.460937v37.515625c0 4.121094-3.339844 7.460938-7.460938 7.460938zm0 0" fill="#0396fd" />
		<path d="m485.117188 230.710938v37.515624c0 4.117188-3.335938 7.460938-7.460938 7.460938h-17.3125c4.128906 0 7.460938-3.34375 7.460938-7.460938v-37.515624c0-4.117188-3.332032-7.460938-7.460938-7.460938h17.3125c4.125 0 7.460938 3.34375 7.460938 7.460938zm0 0" fill="#0077f0" />
		<path d="m485.117188 314.828125v37.515625c0 4.128906-3.335938 7.464844-7.460938 7.464844h-17.3125c4.128906 0 7.460938-3.335938 7.460938-7.464844v-37.515625c0-4.117187-3.332032-7.460937-7.460938-7.460937h17.3125c4.125 0 7.460938 3.34375 7.460938 7.460937zm0 0" fill="#0077f0" />
		<path d="m485.117188 398.957031v37.515625c0 4.117188-3.335938 7.460938-7.460938 7.460938h-17.3125c4.128906 0 7.460938-3.34375 7.460938-7.460938v-37.515625c0-4.125-3.332032-7.460937-7.460938-7.460937h17.3125c4.125 0 7.460938 3.335937 7.460938 7.460937zm0 0" fill="#0077f0" />
		<path d="m340.363281 256.96875h-37.144531c-4.140625 0-7.5-3.355469-7.5-7.5 0-4.140625 3.359375-7.5 7.5-7.5h37.148438c4.140624 0 7.5 3.359375 7.5 7.5 0 4.144531-3.359376 7.5-7.503907 7.5zm0 0" fill="#e7e7e7" />
		<path d="m457.261719 256.96875h-52.441407c-4.140624 0-7.5-3.355469-7.5-7.5 0-4.140625 3.359376-7.5 7.5-7.5h52.4375c4.144532 0 7.5 3.359375 7.5 7.5 0 4.144531-3.355468 7.5-7.496093 7.5zm0 0" fill="#e7e7e7" />
		<path d="m378.601562 256.96875h-12.019531c-4.140625 0-7.5-3.355469-7.5-7.5 0-4.140625 3.359375-7.5 7.5-7.5h12.019531c4.144532 0 7.5 3.359375 7.5 7.5 0 4.144531-3.359374 7.5-7.5 7.5zm0 0" fill="#e7e7e7" />
		<path d="m340.363281 341.089844h-37.144531c-4.140625 0-7.5-3.355469-7.5-7.5 0-4.140625 3.359375-7.5 7.5-7.5h37.148438c4.140624 0 7.5 3.359375 7.5 7.5 0 4.144531-3.359376 7.5-7.503907 7.5zm0 0" fill="#e7e7e7" />
		<path d="m457.261719 341.089844h-52.441407c-4.140624 0-7.5-3.355469-7.5-7.5 0-4.140625 3.359376-7.5 7.5-7.5h52.4375c4.144532 0 7.5 3.359375 7.5 7.5 0 4.144531-3.355468 7.5-7.496093 7.5zm0 0" fill="#e7e7e7" />
		<path d="m378.601562 341.089844h-12.019531c-4.140625 0-7.5-3.355469-7.5-7.5 0-4.140625 3.359375-7.5 7.5-7.5h12.019531c4.144532 0 7.5 3.359375 7.5 7.5 0 4.144531-3.359374 7.5-7.5 7.5zm0 0" fill="#e7e7e7" />
		<path d="m340.363281 425.210938h-37.144531c-4.140625 0-7.5-3.359376-7.5-7.5 0-4.140626 3.359375-7.5 7.5-7.5h37.148438c4.140624 0 7.5 3.359374 7.5 7.5 0 4.140624-3.359376 7.5-7.503907 7.5zm0 0" fill="#e7e7e7" />
		<path d="m457.261719 425.210938h-52.441407c-4.140624 0-7.5-3.359376-7.5-7.5 0-4.140626 3.359376-7.5 7.5-7.5h52.4375c4.144532 0 7.5 3.359374 7.5 7.5 0 4.140624-3.355468 7.5-7.496093 7.5zm0 0" fill="#e7e7e7" />
		<path d="m378.601562 425.210938h-12.019531c-4.140625 0-7.5-3.359376-7.5-7.5 0-4.140626 3.359375-7.5 7.5-7.5h12.019531c4.144532 0 7.5 3.359374 7.5 7.5 0 4.140624-3.359374 7.5-7.5 7.5zm0 0" fill="#e7e7e7" />
		<path d="m64.144531 44.5625c0 8.25-6.6875 14.933594-14.933593 14.933594-8.25 0-14.9375-6.683594-14.9375-14.933594 0-8.246094 6.6875-14.933594 14.9375-14.933594 8.246093 0 14.933593 6.6875 14.933593 14.933594zm0 0" fill="#ff5770" />
		<path d="m121.816406 44.5625c0 8.25-6.683594 14.933594-14.933594 14.933594-8.246093 0-14.933593-6.683594-14.933593-14.933594 0-8.246094 6.6875-14.933594 14.933593-14.933594 8.25 0 14.933594 6.6875 14.933594 14.933594zm0 0" fill="#ffd86e" />
		<path d="m179.492188 44.5625c0 8.25-6.6875 14.933594-14.933594 14.933594-8.25 0-14.933594-6.683594-14.933594-14.933594 0-8.246094 6.683594-14.933594 14.933594-14.933594 8.246094 0 14.933594 6.6875 14.933594 14.933594zm0 0" fill="#80e0dc" />
		<path d="m64.136719 44.566406c0 8.246094-6.679688 14.925782-14.921875 14.925782-3.996094 0-7.628906-1.566407-10.304688-4.128907 8.078125-.175781 14.585938-6.78125 14.585938-14.914062 0-4.257813-1.78125-8.089844-4.632813-10.804688.113281-.011719.238281-.011719.351563-.011719 8.242187 0 14.921875 6.679688 14.921875 14.933594zm0 0" fill="#ff435f" />
		<path d="m121.8125 44.566406c0 8.246094-6.679688 14.925782-14.933594 14.925782-3.992187 0-7.613281-1.566407-10.300781-4.128907 8.089844-.175781 14.59375-6.78125 14.59375-14.914062 0-4.257813-1.78125-8.089844-4.628906-10.804688.109375-.011719.222656-.011719.339843-.011719 8.253907 0 14.929688 6.679688 14.929688 14.933594zm0 0" fill="#ffb509" />
		<path d="m179.492188 44.566406c0 8.246094-6.691407 14.925782-14.933594 14.925782-3.996094 0-7.617188-1.566407-10.304688-4.128907 8.089844-.175781 14.585938-6.78125 14.585938-14.914062 0-4.257813-1.78125-8.089844-4.632813-10.804688.113281-.011719.238281-.011719.351563-.011719 8.242187 0 14.933594 6.679688 14.933594 14.933594zm0 0" fill="#00a8b0" />
	</symbol>
	<symbol id="think-different" viewBox="0 0 64 64">
		<title>think-different</title>
		<g>
			<g>
				<path d="m8 40h8c0 2.21-1.79 4-4 4s-4-1.79-4-4z" fill="#aab2bd" />
			</g>
			<g>
				<path d="m48 40h8c0 2.21-1.79 4-4 4s-4-1.79-4-4z" fill="#aab2bd" />
			</g>
			<g>
				<path d="m16 36v4h-8v-4h2 4z" fill="#ccd1d9" />
			</g>
			<g>
				<path d="m50 36h4 2v4h-8v-4z" fill="#ccd1d9" />
			</g>
			<g>
				<path d="m21.86 22.3c-.74-1.17-1.34-2.46-1.64-4-1.81-2.6-4.81-4.3-8.22-4.3-5.52 0-10 4.48-10 10 0 6 5 8 6 12h2 4 2c1-4 6-6 6-12 0-.58-.05-1.15-.14-1.7z" fill="#ffeaa7" />
			</g>
			<g>
				<path d="m52 14c-3.41 0-6.41 1.7-8.22 4.3-.3 1.54-.9 2.83-1.64 4-.09.55-.14 1.12-.14 1.7 0 6 5 8 6 12h2 4 2c1-4 6-6 6-12 0-5.52-4.48-10-10-10z" fill="#ffeaa7" />
			</g>
			<g>
				<path d="m10 24v2h-2c-1.1 0-2-.9-2-2 0-.55.22-1.05.59-1.41.36-.37.86-.59 1.41-.59s1.05.22 1.41.59c.37.36.59.86.59 1.41z" fill="#fcd770" />
			</g>
			<g>
				<path d="m17.41 22.59c.37.36.59.86.59 1.41s-.22 1.05-.59 1.41c-.36.37-.86.59-1.41.59h-2v-2c0-1.1.9-2 2-2 .55 0 1.05.22 1.41.59z" fill="#fcd770" />
			</g>
			<g>
				<path d="m57.41 22.59c.37.36.59.86.59 1.41s-.22 1.05-.59 1.41c-.36.37-.86.59-1.41.59h-2v-2c0-1.1.9-2 2-2 .55 0 1.05.22 1.41.59z" fill="#fcd770" />
			</g>
			<g>
				<path d="m50 24v2h-2c-1.1 0-2-.9-2-2 0-.55.22-1.05.59-1.41.36-.37.86-.59 1.41-.59s1.05.22 1.41.59c.37.36.59.86.59 1.41z" fill="#fcd770" />
			</g>
			<g>
				<path d="m35 38v1c0 .83-.34 1.58-.88 2.12s-1.29.88-2.12.88c-1.66 0-3-1.34-3-3v-1z" fill="#aab2bd" />
			</g>
			<g>
				<path d="m27 30h10v4h-10z" fill="#ccd1d9" />
			</g>
			<g>
				<path d="m37 34v2c0 1.1-.9 2-2 2h-6c-1.1 0-2-.9-2-2v-2z" fill="#ccd1d9" />
			</g>
			<g>
				<path d="m35.8 4.61-8.08.18c-4.51 1.72-7.72 6.09-7.72 11.21 0 .83.08 1.59.22 2.3.3 1.54.9 2.83 1.64 4 1.63 2.62 3.93 4.68 5.14 7.7h10c1.21-3.02 3.51-5.08 5.14-7.7.74-1.17 1.34-2.46 1.64-4 .14-.71.22-1.47.22-2.3 0-5.3-3.44-9.8-8.2-11.39z" fill="#e6e9ed" />
			</g>
			<g>
				<path d="m35.91 4.26-.11.35-1.8 5.39h2.33c.92 0 1.67.75 1.67 1.67 0 .22-.04.43-.13.64l-4.56 10.95c-.19.45-.63.74-1.11.74-.66 0-1.2-.54-1.2-1.2v-8.8h-2.1c-1.05 0-1.9-.85-1.9-1.9 0-.07 0-.13.01-.19l.71-7.12.1-.99c.1-1.02.96-1.8 1.99-1.8h4.47c.95 0 1.72.77 1.72 1.72 0 .19-.03.37-.09.54z" fill="#ffc729" />
			</g>
		</g>
		<path d="m58 49h-4c-.551 0-1-.448-1-1v-3.101c2.279-.465 4-2.484 4-4.899v-3.84c.367-1.363 1.287-2.497 2.359-3.801 1.707-2.077 3.641-4.431 3.641-8.359 0-6.065-4.935-11-11-11-2.595 0-5.065.929-7.018 2.549-.176-5.11-3.309-9.615-8.004-11.557.009-.091.022-.18.022-.271 0-1.5-1.221-2.721-2.721-2.721h-4.469c-1.547 0-2.831 1.161-2.985 2.701l-.04.397c-4.541 1.996-7.592 6.484-7.767 11.451-1.953-1.62-4.423-2.549-7.018-2.549-6.065 0-11 4.935-11 11 0 3.928 1.934 6.282 3.641 8.359 1.072 1.304 1.992 2.438 2.359 3.801v3.84c0 2.414 1.721 4.434 4 4.899v3.101c0 1.654 1.346 3 3 3h4c.551 0 1 .448 1 1s-.449 1-1 1h-12c-1.654 0-3 1.346-3 3s1.346 3 3 3h4c.551 0 1 .448 1 1v3h2v-3c0-1.654-1.346-3-3-3h-4c-.551 0-1-.448-1-1s.449-1 1-1h12c1.654 0 3-1.346 3-3s-1.346-3-3-3h-4c-.551 0-1-.448-1-1v-3.101c2.279-.465 4-2.484 4-4.899v-3.84c.367-1.363 1.287-2.497 2.359-3.801 1.484-1.806 3.136-3.824 3.543-6.901.064.081.127.164.19.245 1.135 1.452 2.203 2.833 2.907 4.517v5.78c0 1.302.839 2.402 2 2.816v.184c0 1.859 1.28 3.411 3 3.858v1.142c0 .552-.449 1-1 1h-3c-2.206 0-4 1.794-4 4s1.794 4 4 4h9c1.654 0 3 1.346 3 3s-1.346 3-3 3h-2c-1.654 0-3 1.346-3 3v1h2v-1c0-.552.449-1 1-1h2c2.757 0 5-2.243 5-5s-2.243-5-5-5h-9c-1.103 0-2-.897-2-2s.897-2 2-2h3c1.654 0 3-1.346 3-3v-1.142c1.72-.447 3-1.999 3-3.858v-.184c1.161-.414 2-1.514 2-2.816v-5.779c.704-1.684 1.772-3.064 2.907-4.517.063-.081.127-.164.19-.245.407 3.077 2.06 5.095 3.543 6.901 1.072 1.304 1.992 2.438 2.359 3.801v3.839c0 2.414 1.721 4.434 4 4.899v3.101c0 1.654 1.346 3 3 3h4c.551 0 1 .448 1 1s-.449 1-1 1h-11.998c-1.654 0-3 1.346-3 3s1.346 3 3 3h4c.551 0 1 .448 1 1v3h2v-3c0-1.654-1.346-3-3-3h-4c-.551 0-1-.448-1-1s.449-1 1-1h12c1.654 0 3-1.346 3-3s-1.346-3-3-3zm-9-24h-1c-.551 0-1-.448-1-1s.449-1 1-1 1 .448 1 1zm4 10h-2v-8h2zm2 2v2h-6v-2zm-25.19-34h4.469c.398 0 .721.323.721.721 0 .076-.013.155-.037.228l-2.35 7.051h3.721c.367 0 .666.299.666.667 0 .088-.017.174-.051.256l-4.564 10.955c-.073.176-.385.114-.385-.078v-9.8h-3.095c-.499 0-.905-.406-.9-.995l.81-8.105c.051-.513.479-.9.995-.9zm-20.81 22h-1c-.551 0-1-.448-1-1s.449-1 1-1 1 .448 1 1zm4 10h-2v-8h2zm2 2v2h-6v-2zm-3 6c-1.302 0-2.402-.839-2.816-2h5.631c-.413 1.161-1.513 2-2.815 2zm9-19c0 3.211-1.62 5.183-3.186 7.09-.981 1.193-1.986 2.424-2.544 3.91h-.27v-8h1c1.654 0 3-1.346 3-3s-1.346-3-3-3-3 1.346-3 3v1h-2v-1c0-1.654-1.346-3-3-3s-3 1.346-3 3 1.346 3 3 3h1v8h-.27c-.557-1.487-1.563-2.717-2.544-3.91-1.566-1.907-3.186-3.879-3.186-7.09 0-4.963 4.038-9 9-9 2.898 0 5.613 1.404 7.305 3.755.328 1.479.894 2.746 1.588 3.887.067.448.107.903.107 1.358zm-6 1v-1c0-.552.449-1 1-1s1 .448 1 1-.449 1-1 1zm21 8h-8v-2h8zm-4 8c-1.103 0-2-.897-2-2h4c0 1.103-.897 2-2 2zm3-4h-6c-.551 0-1-.448-1-1v-1h8v1c0 .552-.449 1-1 1zm4.332-12.528c-1.074 1.374-2.163 2.806-2.963 4.528h-8.737c-.8-1.722-1.889-3.154-2.963-4.528-1.887-2.413-3.669-4.693-3.669-8.472 0-3.963 2.175-7.619 5.55-9.555l-.536 5.361c-.01.096-.014.192-.014.289 0 1.601 1.303 2.905 2.905 2.905h1.095v7.8c0 1.213.987 2.2 2.2 2.2.892 0 1.688-.531 2.03-1.354l4.563-10.953c.138-.326.207-.672.207-1.026 0-1.471-1.196-2.667-2.667-2.667h-.946l1.026-3.076c3.977 1.738 6.587 5.668 6.587 10.076 0 3.779-1.782 6.059-3.668 8.472zm3.668-.472c0-.455.04-.91.108-1.357.694-1.142 1.26-2.409 1.588-3.889 1.691-2.35 4.406-3.754 7.304-3.754 4.962 0 9 4.037 9 9 0 3.211-1.62 5.183-3.186 7.09-.981 1.193-1.986 2.424-2.544 3.91h-.27v-8h1c1.654 0 3-1.346 3-3s-1.346-3-3-3-3 1.346-3 3v1h-2v-1c0-1.654-1.346-3-3-3s-3 1.346-3 3 1.346 3 3 3h1v8h-.27c-.557-1.487-1.563-2.717-2.544-3.91-1.566-1.907-3.186-3.879-3.186-7.09zm12 1v-1c0-.552.449-1 1-1s1 .448 1 1-.449 1-1 1zm-5.816 16h5.631c-.414 1.161-1.514 2-2.816 2s-2.401-.839-2.815-2z" />
	</symbol>
	<symbol id="think-different-1" viewBox="0 0 64 64">
		<title>think-different-1</title>
		<path d="m58 49h-4c-.551 0-1-.448-1-1v-3.101c2.279-.465 4-2.484 4-4.899v-3.84c.367-1.363 1.287-2.497 2.359-3.801 1.707-2.077 3.641-4.431 3.641-8.359 0-6.065-4.935-11-11-11-2.595 0-5.065.929-7.018 2.549-.176-5.11-3.309-9.615-8.004-11.557.009-.091.022-.18.022-.271 0-1.5-1.221-2.721-2.721-2.721h-4.469c-1.547 0-2.831 1.161-2.985 2.701l-.04.397c-4.541 1.996-7.592 6.484-7.767 11.451-1.953-1.62-4.423-2.549-7.018-2.549-6.065 0-11 4.935-11 11 0 3.928 1.934 6.282 3.641 8.359 1.072 1.304 1.992 2.438 2.359 3.801v3.84c0 2.414 1.721 4.434 4 4.899v3.101c0 1.654 1.346 3 3 3h4c.551 0 1 .448 1 1s-.449 1-1 1h-12c-1.654 0-3 1.346-3 3s1.346 3 3 3h4c.551 0 1 .448 1 1v3h2v-3c0-1.654-1.346-3-3-3h-4c-.551 0-1-.448-1-1s.449-1 1-1h12c1.654 0 3-1.346 3-3s-1.346-3-3-3h-4c-.551 0-1-.448-1-1v-3.101c2.279-.465 4-2.484 4-4.899v-3.84c.367-1.363 1.287-2.497 2.359-3.801 1.484-1.806 3.136-3.824 3.543-6.901.064.081.127.164.19.245 1.135 1.452 2.203 2.833 2.907 4.517v5.78c0 1.302.839 2.402 2 2.816v.184c0 1.859 1.28 3.411 3 3.858v1.142c0 .552-.449 1-1 1h-3c-2.206 0-4 1.794-4 4s1.794 4 4 4h9c1.654 0 3 1.346 3 3s-1.346 3-3 3h-2c-1.654 0-3 1.346-3 3v1h2v-1c0-.552.449-1 1-1h2c2.757 0 5-2.243 5-5s-2.243-5-5-5h-9c-1.103 0-2-.897-2-2s.897-2 2-2h3c1.654 0 3-1.346 3-3v-1.142c1.72-.447 3-1.999 3-3.858v-.184c1.161-.414 2-1.514 2-2.816v-5.779c.704-1.684 1.772-3.064 2.907-4.517.063-.081.127-.164.19-.245.407 3.077 2.06 5.095 3.543 6.901 1.072 1.304 1.992 2.438 2.359 3.801v3.839c0 2.414 1.721 4.434 4 4.899v3.101c0 1.654 1.346 3 3 3h4c.551 0 1 .448 1 1s-.449 1-1 1h-11.998c-1.654 0-3 1.346-3 3s1.346 3 3 3h4c.551 0 1 .448 1 1v3h2v-3c0-1.654-1.346-3-3-3h-4c-.551 0-1-.448-1-1s.449-1 1-1h12c1.654 0 3-1.346 3-3s-1.346-3-3-3zm-9-24h-1c-.551 0-1-.448-1-1s.449-1 1-1 1 .448 1 1zm4 10h-2v-8h2zm2 2v2h-6v-2zm-25.19-34h4.469c.398 0 .721.323.721.721 0 .076-.013.155-.037.228l-2.35 7.051h3.721c.367 0 .666.299.666.667 0 .088-.017.174-.051.256l-4.564 10.955c-.073.176-.385.114-.385-.078v-9.8h-3.095c-.499 0-.905-.406-.9-.995l.81-8.105c.051-.513.479-.9.995-.9zm-20.81 22h-1c-.551 0-1-.448-1-1s.449-1 1-1 1 .448 1 1zm4 10h-2v-8h2zm2 2v2h-6v-2zm-3 6c-1.302 0-2.402-.839-2.816-2h5.631c-.413 1.161-1.513 2-2.815 2zm9-19c0 3.211-1.62 5.183-3.186 7.09-.981 1.193-1.986 2.424-2.544 3.91h-.27v-8h1c1.654 0 3-1.346 3-3s-1.346-3-3-3-3 1.346-3 3v1h-2v-1c0-1.654-1.346-3-3-3s-3 1.346-3 3 1.346 3 3 3h1v8h-.27c-.557-1.487-1.563-2.717-2.544-3.91-1.566-1.907-3.186-3.879-3.186-7.09 0-4.963 4.038-9 9-9 2.898 0 5.613 1.404 7.305 3.755.328 1.479.894 2.746 1.588 3.887.067.448.107.903.107 1.358zm-6 1v-1c0-.552.449-1 1-1s1 .448 1 1-.449 1-1 1zm21 8h-8v-2h8zm-4 8c-1.103 0-2-.897-2-2h4c0 1.103-.897 2-2 2zm3-4h-6c-.551 0-1-.448-1-1v-1h8v1c0 .552-.449 1-1 1zm4.332-12.528c-1.074 1.374-2.163 2.806-2.963 4.528h-8.737c-.8-1.722-1.889-3.154-2.963-4.528-1.887-2.413-3.669-4.693-3.669-8.472 0-3.963 2.175-7.619 5.55-9.555l-.536 5.361c-.01.096-.014.192-.014.289 0 1.601 1.303 2.905 2.905 2.905h1.095v7.8c0 1.213.987 2.2 2.2 2.2.892 0 1.688-.531 2.03-1.354l4.563-10.953c.138-.326.207-.672.207-1.026 0-1.471-1.196-2.667-2.667-2.667h-.946l1.026-3.076c3.977 1.738 6.587 5.668 6.587 10.076 0 3.779-1.782 6.059-3.668 8.472zm3.668-.472c0-.455.04-.91.108-1.357.694-1.142 1.26-2.409 1.588-3.889 1.691-2.35 4.406-3.754 7.304-3.754 4.962 0 9 4.037 9 9 0 3.211-1.62 5.183-3.186 7.09-.981 1.193-1.986 2.424-2.544 3.91h-.27v-8h1c1.654 0 3-1.346 3-3s-1.346-3-3-3-3 1.346-3 3v1h-2v-1c0-1.654-1.346-3-3-3s-3 1.346-3 3 1.346 3 3 3h1v8h-.27c-.557-1.487-1.563-2.717-2.544-3.91-1.566-1.907-3.186-3.879-3.186-7.09zm12 1v-1c0-.552.449-1 1-1s1 .448 1 1-.449 1-1 1zm-5.816 16h5.631c-.414 1.161-1.514 2-2.816 2s-2.401-.839-2.815-2z" />
	</symbol>
	<symbol id="data-1" viewBox="0 0 511.998 511">
		<title>data-1</title>
		<path d="m58.960938 187.046875c1.460937 1.460937 3.378906 2.195313 5.296874 2.195313 1.917969 0 3.835938-.730469 5.300782-2.195313 2.925781-2.925781 2.925781-7.671875 0-10.597656l-18.195313-18.195313 18.195313-18.191406c2.925781-2.929688 2.925781-7.671875 0-10.597656-2.925782-2.925782-7.671875-2.925782-10.597656 0l-23.492188 23.492187c-1.40625 1.40625-2.195312 3.3125-2.195312 5.296875 0 1.988282.789062 3.894532 2.195312 5.300782zm0 0" />
		<path d="m133.320312 158.253906-18.195312 18.195313c-2.925781 2.925781-2.925781 7.671875.003906 10.597656 1.460938 1.460937 3.378906 2.195313 5.296875 2.195313s3.835938-.734376 5.296875-2.195313l23.496094-23.496094c2.925781-2.925781 2.925781-7.671875 0-10.59375l-23.496094-23.496093c-2.925781-2.925782-7.667968-2.925782-10.59375 0-2.929687 2.929687-2.929687 7.671874 0 10.597656zm0 0" />
		<path d="m81.171875 188.722656c.898437.351563 1.828125.519532 2.738281.519532 2.992188 0 5.816406-1.804688 6.976563-4.753907l18.457031-46.988281c1.515625-3.851562-.382812-8.199219-4.234375-9.714844-3.847656-1.511718-8.199219.382813-9.710937 4.234375l-18.460938 46.988281c-1.511719 3.851563.382812 8.203126 4.234375 9.714844zm0 0" />
		<path d="m45.007812 233.203125h50.480469c4.136719 0 7.492188-3.355469 7.492188-7.496094 0-4.136719-3.355469-7.492187-7.492188-7.492187h-50.480469c-4.140624 0-7.492187 3.355468-7.492187 7.492187 0 4.140625 3.351563 7.496094 7.492187 7.496094zm0 0" />
		<path d="m211.753906 218.214844h-88.75c-4.136718 0-7.492187 3.355468-7.492187 7.492187 0 4.140625 3.355469 7.496094 7.492187 7.496094h88.75c4.140625 0 7.496094-3.355469 7.496094-7.496094 0-4.136719-3.355469-7.492187-7.496094-7.492187zm0 0" />
		<path d="m45.007812 264.808594h21.503907c4.136719 0 7.492187-3.355469 7.492187-7.496094 0-4.136719-3.355468-7.492188-7.492187-7.492188h-21.503907c-4.140624 0-7.492187 3.355469-7.492187 7.492188 0 4.140625 3.351563 7.496094 7.492187 7.496094zm0 0" />
		<path d="m184.339844 249.820312c-4.140625 0-7.492188 3.355469-7.492188 7.492188 0 4.140625 3.351563 7.496094 7.492188 7.496094h13.09375c4.140625 0 7.496094-3.355469 7.496094-7.496094 0-4.136719-3.355469-7.492188-7.496094-7.492188zm0 0" />
		<path d="m164.617188 257.3125c0-4.136719-3.355469-7.492188-7.492188-7.492188h-64.320312c-4.140626 0-7.492188 3.355469-7.492188 7.492188 0 4.140625 3.351562 7.496094 7.492188 7.496094h64.320312c4.136719 0 7.492188-3.355469 7.492188-7.496094zm0 0" />
		<path d="m213.703125 257.3125c0 4.140625 3.355469 7.496094 7.492187 7.496094h24.527344c4.140625 0 7.496094-3.355469 7.496094-7.496094 0-4.136719-3.355469-7.492188-7.496094-7.492188h-24.527344c-4.136718 0-7.492187 3.355469-7.492187 7.492188zm0 0" />
		<path d="m172.894531 164.265625h25.871094c4.140625 0 7.496094-3.355469 7.496094-7.496094 0-4.136719-3.355469-7.492187-7.496094-7.492187h-25.871094c-4.140625 0-7.496093 3.355468-7.496093 7.492187 0 4.140625 3.355468 7.496094 7.496093 7.496094zm0 0" />
		<path d="m227.742188 164.265625h157.855468c4.140625 0 7.492188-3.355469 7.492188-7.496094 0-4.136719-3.351563-7.492187-7.492188-7.492187h-157.855468c-4.140626 0-7.496094 3.355468-7.496094 7.492187 0 4.140625 3.355468 7.496094 7.496094 7.496094zm0 0" />
		<path d="m361.621094 182.246094h-63.945313c-4.136719 0-7.492187 3.355468-7.492187 7.496094 0 4.136718 3.355468 7.492187 7.492187 7.492187h63.945313c4.136718 0 7.492187-3.355469 7.492187-7.492187 0-4.140626-3.355469-7.496094-7.492187-7.496094zm0 0" />
		<path d="m273.699219 182.246094h-21.980469c-4.140625 0-7.492188 3.355468-7.492188 7.496094 0 4.136718 3.351563 7.492187 7.492188 7.492187h21.980469c4.140625 0 7.492187-3.355469 7.492187-7.492187 0-4.140626-3.351562-7.496094-7.492187-7.496094zm0 0" />
		<path d="m172.894531 197.234375h53.847657c4.136718 0 7.492187-3.355469 7.492187-7.492187 0-4.140626-3.355469-7.496094-7.492187-7.496094h-53.847657c-4.140625 0-7.496093 3.355468-7.496093 7.496094 0 4.136718 3.355468 7.492187 7.496093 7.492187zm0 0" />
		<path d="m157.21875 281.160156h-50.476562c-4.140626 0-7.496094 3.355469-7.496094 7.492188 0 4.136718 3.355468 7.492187 7.496094 7.492187h50.476562c4.136719 0 7.492188-3.355469 7.492188-7.492187 0-4.136719-3.355469-7.492188-7.492188-7.492188zm0 0" />
		<path d="m83.789062 281.160156h-38.78125c-4.140624 0-7.492187 3.355469-7.492187 7.492188 0 4.136718 3.351563 7.492187 7.492187 7.492187h38.78125c4.140626 0 7.492188-3.355469 7.492188-7.492187 0-4.136719-3.351562-7.492188-7.492188-7.492188zm0 0" />
		<path d="m248.722656 281.160156h-65.941406c-4.140625 0-7.492188 3.355469-7.492188 7.492188 0 4.136718 3.351563 7.492187 7.492188 7.492187h65.941406c4.136719 0 7.492188-3.355469 7.492188-7.492187 0-4.136719-3.355469-7.492188-7.492188-7.492188zm0 0" />
		<path d="m337.898438 242.667969h-36.058594c-4.136719 0-7.492188 3.355469-7.492188 7.492187 0 4.140625 3.355469 7.496094 7.492188 7.496094h36.058594c4.140624 0 7.492187-3.355469 7.492187-7.496094 0-4.136718-3.351563-7.492187-7.492187-7.492187zm0 0" />
		<path d="m400.46875 257.65625h50.902344c4.140625 0 7.496094-3.355469 7.496094-7.496094 0-4.136718-3.355469-7.492187-7.496094-7.492187h-50.902344c-4.140625 0-7.492188 3.355469-7.492188 7.492187 0 4.140625 3.355469 7.496094 7.492188 7.496094zm0 0" />
		<path d="m375.015625 242.667969h-11.664063c-4.140624 0-7.496093 3.355469-7.496093 7.492187 0 4.140625 3.355469 7.496094 7.496093 7.496094h11.664063c4.140625 0 7.492187-3.355469 7.492187-7.496094 0-4.136718-3.351562-7.492187-7.492187-7.492187zm0 0" />
		<path d="m301.839844 339.3125h36.058594c4.140624 0 7.492187-3.351562 7.492187-7.492188 0-4.136718-3.351563-7.492187-7.492187-7.492187h-36.058594c-4.136719 0-7.492188 3.355469-7.492188 7.492187 0 4.140626 3.355469 7.492188 7.492188 7.492188zm0 0" />
		<path d="m400.46875 339.3125h50.902344c4.140625 0 7.496094-3.351562 7.496094-7.492188 0-4.136718-3.355469-7.492187-7.496094-7.492187h-50.902344c-4.140625 0-7.492188 3.355469-7.492188 7.492187 0 4.140626 3.355469 7.492188 7.492188 7.492188zm0 0" />
		<path d="m363.351562 339.3125h11.664063c4.140625 0 7.496094-3.351562 7.496094-7.492188 0-4.136718-3.355469-7.492187-7.496094-7.492187h-11.664063c-4.140624 0-7.492187 3.355469-7.492187 7.492187 0 4.140626 3.351563 7.492188 7.492187 7.492188zm0 0" />
		<path d="m337.898438 405.988281h-36.058594c-4.136719 0-7.492188 3.355469-7.492188 7.492188s3.355469 7.492187 7.492188 7.492187h36.058594c4.140624 0 7.492187-3.355468 7.492187-7.492187s-3.351563-7.492188-7.492187-7.492188zm0 0" />
		<path d="m451.371094 405.988281h-50.902344c-4.140625 0-7.492188 3.355469-7.492188 7.492188s3.351563 7.492187 7.492188 7.492187h50.902344c4.140625 0 7.496094-3.355468 7.496094-7.492187s-3.355469-7.492188-7.496094-7.492188zm0 0" />
		<path d="m375.015625 405.988281h-11.664063c-4.140624 0-7.496093 3.355469-7.496093 7.492188s3.355469 7.492187 7.496093 7.492187h11.664063c4.140625 0 7.492187-3.355468 7.492187-7.492187s-3.351562-7.492188-7.492187-7.492188zm0 0" />
		<path d="m479.023438.5h-446.042969c-18.183594 0-32.980469 14.792969-32.980469 32.980469v362.566406c0 18.183594 14.796875 32.976563 32.980469 32.976563h28.199219c4.136718 0 7.492187-3.351563 7.492187-7.492188 0-4.136719-3.355469-7.492188-7.492187-7.492188h-28.199219c-9.921875 0-17.992188-8.070312-17.992188-17.992187v-28.425781h272.996094v12.914062h-5.941406c-8.128907 0-14.738281 6.609375-14.738281 14.738282v18.765624h-160.566407c-4.136719 0-7.492187 3.355469-7.492187 7.492188 0 4.140625 3.355468 7.492188 7.492187 7.492188h72.046875v26.875h-22.625c-15.09375 0-27.371094 12.28125-27.371094 27.371093v16.1875c0 6.886719 5.601563 12.488281 12.488282 12.488281h228.875c6.886718 0 12.488281-5.601562 12.488281-12.488281v-16.1875c0-15.089843-12.277344-27.371093-27.371094-27.371093h-22.625v-9.472657h138.527344c8.125 0 14.734375-6.609375 14.734375-14.738281v-3.527344c14.605469-3.390625 25.523438-16.496094 25.523438-32.113281l.566406-362.570313c.003906-18.183593-14.789063-32.976562-32.972656-32.976562zm-196.730469 349.28125v-35.917969h188.628906v35.917969zm20.675781-50.90625v-15.765625h147.273438v15.765625zm147.273438 65.890625v15.769531h-147.273438v-15.769531zm-256.472657 64.257813h73.535157v2.667968c0 8.125 6.609374 14.734375 14.738281 14.734375h35.617187v9.472657h-123.890625zm161.503907 41.863281c6.828124 0 12.382812 5.554687 12.382812 12.382812v13.691407h-223.882812v-13.691407c0-6.828125 5.558593-12.382812 12.386718-12.382812zm115.648437-39.449219h-188.628906v-35.914062h188.628906zm25.523437-35.390625c0 7.257813-4.328124 13.511719-10.535156 16.351563v-17.128907c0-8.125-6.613281-14.734375-14.738281-14.734375h-5.941406v-12.914062h31.214843zm0-43.410156h-10.78125c.152344-.847657.246094-39.023438.246094-39.023438 0-8.128906-6.613281-14.738281-14.738281-14.738281h-5.941406v-15.765625h5.941406c8.125 0 14.738281-6.613281 14.738281-14.738281v-36.417969c0-8.125-6.613281-14.738281-14.738281-14.738281h-42.324219c-4.140625 0-7.492187 3.355468-7.492187 7.496094 0 4.136718 3.351562 7.492187 7.492187 7.492187h42.074219v35.917969h-188.628906v-35.917969h99.929687c4.140625 0 7.492188-3.355469 7.492188-7.492187 0-4.140626-3.351563-7.496094-7.492188-7.496094h-100.179687c-8.128907 0-14.738281 6.613281-14.738281 14.738281v36.417969c0 8.125 6.609374 14.738281 14.738281 14.738281h5.941406v15.765625h-5.941406c-8.128907 0-14.738281 6.613281-14.738281 14.738281 0 0 .09375 38.175781.246093 39.023438h-252.5625v-250.207031h481.457031zm0-265.195313h-480.90625v-53.964844c0-9.917968 8.070313-17.988281 17.992188-17.988281h444.921875c9.921875 0 17.992187 8.070313 17.992187 17.992188zm0 0" />
		<path d="m55.261719 29.261719c-12.125 0-21.988281 9.863281-21.988281 21.988281s9.863281 21.992188 21.988281 21.992188 21.992187-9.867188 21.992187-21.992188-9.867187-21.988281-21.992187-21.988281zm0 28.992187c-3.859375 0-7.003907-3.140625-7.003907-7.003906 0-3.859375 3.144532-7.003906 7.003907-7.003906 3.863281 0 7.003906 3.144531 7.003906 7.003906 0 3.863281-3.140625 7.003906-7.003906 7.003906zm0 0" />
		<path d="m111.25 29.261719c-12.125 0-21.992188 9.863281-21.992188 21.988281s9.867188 21.992188 21.992188 21.992188 21.988281-9.867188 21.988281-21.992188-9.867187-21.988281-21.988281-21.988281zm0 28.992187c-3.863281 0-7.003906-3.140625-7.003906-7.003906 0-3.859375 3.140625-7.003906 7.003906-7.003906 3.859375 0 7.003906 3.144531 7.003906 7.003906 0 3.863281-3.144531 7.003906-7.003906 7.003906zm0 0" />
		<path d="m167.234375 29.261719c-12.125 0-21.988281 9.863281-21.988281 21.988281s9.863281 21.992188 21.988281 21.992188 21.992187-9.867188 21.992187-21.992188-9.867187-21.988281-21.992187-21.988281zm0 28.992187c-3.859375 0-7.003906-3.140625-7.003906-7.003906 0-3.859375 3.144531-7.003906 7.003906-7.003906 3.863281 0 7.003906 3.144531 7.003906 7.003906 0 3.863281-3.140625 7.003906-7.003906 7.003906zm0 0" />
	</symbol>
	<symbol id="diagram-1" viewBox="0 0 480.006 480.006">
		<title>diagram-1</title>
		<g>
			<g>
				<rect x="40.003" y="48.006" width="104" height="16" />
			</g>
		</g>
		<g>
			<g>
				<rect x="40.003" y="80.006" width="104" height="16" />
			</g>
		</g>
		<g>
			<g>
				<rect x="40.003" y="112.006" width="72" height="16" />
			</g>
		</g>
		<g>
			<g>
				<rect x="40.003" y="144.006" width="72" height="16" />
			</g>
		</g>
		<g>
			<g>
				<rect x="0.003" y="464.006" width="480" height="16" />
			</g>
		</g>
		<g>
			<g>
				<path d="M463.163,68.43l-32-64c-1.973-3.954-6.776-5.56-10.73-3.587c-0.002,0.001-0.004,0.002-0.006,0.003l-64,32 c-3.954,1.975-5.559,6.782-3.584,10.736s6.782,5.559,10.736,3.584l46.352-23.16l-12.648,36.112 C341.69,218.446,198.501,329.522,31.323,344.006l1.36,16C206.16,344.978,354.737,229.701,412.395,65.398l12.912-36.896 l23.536,47.08c1.975,3.954,6.782,5.559,10.736,3.584C463.534,77.191,465.138,72.385,463.163,68.43z" />
			</g>
		</g>
		<g>
			<g>
				<path d="M96.003,384.006h-56c-4.418,0-8,3.582-8,8v48c0,4.418,3.582,8,8,8h56c4.418,0,8-3.582,8-8v-48 C104.003,387.588,100.421,384.006,96.003,384.006z M88.003,432.006h-40v-32h40V432.006z" />
			</g>
		</g>
		<g>
			<g>
				<path d="M184.003,360.006h-56c-4.418,0-8,3.582-8,8v72c0,4.418,3.582,8,8,8h56c4.418,0,8-3.582,8-8v-72 C192.003,363.588,188.421,360.006,184.003,360.006z M176.003,432.006h-40v-56h40V432.006z" />
			</g>
		</g>
		<g>
			<g>
				<path d="M272.003,320.006h-56c-4.418,0-8,3.582-8,8v112c0,4.418,3.582,8,8,8h56c4.418,0,8-3.582,8-8v-112 C280.003,323.588,276.421,320.006,272.003,320.006z M264.003,432.006h-40v-96h40V432.006z" />
			</g>
		</g>
		<g>
			<g>
				<path d="M360.003,264.006h-56c-4.418,0-8,3.582-8,8v168c0,4.418,3.582,8,8,8h56c4.418,0,8-3.582,8-8v-168 C368.003,267.588,364.421,264.006,360.003,264.006z M352.003,432.006h-40v-152h40V432.006z" />
			</g>
		</g>
		<g>
			<g>
				<path d="M448.003,152.006h-56c-4.418,0-8,3.582-8,8v280c0,4.418,3.582,8,8,8h56c4.418,0,8-3.582,8-8v-280 C456.003,155.588,452.421,152.006,448.003,152.006z M440.003,432.006h-40v-264h40V432.006z" />
			</g>
		</g>
	</symbol>
</svg>
